
<svg width="640" height="640" viewBox="0 0 640 640" xmlns="http://www.w3.org/2000/svg">
  <defs>
    <linearGradient id="bg" x1="0" y1="0" x2="0" y2="1">
      <stop offset="0" stop-color="#6172F3"/>
      <stop offset="1" stop-color="#4338CA"/>
    </linearGradient>
  </defs>
  <rect width="640" height="640" rx="150" fill="url(#bg)"/>
  <rect x="180" y="158" width="280" height="344" rx="36" fill="#ffffff"/>
  <rect x="258" y="124" width="124" height="66" rx="22" fill="#DfE3EA"/>
  <rect x="286" y="110" width="68" height="42" rx="16" fill="#C3C9D4"/>
  
    <circle cx="240" cy="248" r="23" fill="#22C55E"/>
    <path d="M229 248 l8 9 l15 -18" stroke="#fff" stroke-width="7.5" fill="none" stroke-linecap="round" stroke-linejoin="round"/>
    <rect x="280" y="237" width="150" height="22" rx="11" fill="#D5DAE2"/>
    <circle cx="240" cy="318" r="23" fill="#22C55E"/>
    <path d="M229 318 l8 9 l15 -18" stroke="#fff" stroke-width="7.5" fill="none" stroke-linecap="round" stroke-linejoin="round"/>
    <rect x="280" y="307" width="150" height="22" rx="11" fill="#D5DAE2"/>
    <circle cx="240" cy="388" r="23" fill="#22C55E"/>
    <path d="M229 388 l8 9 l15 -18" stroke="#fff" stroke-width="7.5" fill="none" stroke-linecap="round" stroke-linejoin="round"/>
    <rect x="280" y="377" width="150" height="22" rx="11" fill="#D5DAE2"/>
</svg>