
<svg width="640" height="640" viewBox="0 0 640 640" xmlns="http://www.w3.org/2000/svg">
  <defs>
    <linearGradient id="bg" x1="0" y1="0" x2="1" y2="1">
      <stop offset="0" stop-color="#2b333b"/>
      <stop offset="1" stop-color="#171b1f"/>
    </linearGradient>
  </defs>
  <rect width="640" height="640" fill="url(#bg)"/>

  <!-- クリップボード本体 -->
  <rect x="196" y="168" width="248" height="304" rx="34" fill="#f2efe9"/>
  <rect x="266" y="136" width="108" height="60" rx="20" fill="#c9c3b6"/>
  <rect x="292" y="122" width="56" height="38" rx="14" fill="#a9a294"/>

  <!-- チェック3行（1行目だけ金色＝今日やること） -->
  
    <circle cx="256" cy="248" r="21" fill="#e0a44a"/>
    <path d="M245 248 l8 9 l15 -18" stroke="#ffffff" stroke-width="7" fill="none"
          stroke-linecap="round" stroke-linejoin="round"/>
    <rect x="294" y="238" width="118" height="20" rx="10"
          fill="#3a4149"/>
    <circle cx="256" cy="320" r="21" fill="#dcd6ca"/>
    <path d="M245 320 l8 9 l15 -18" stroke="#ffffff" stroke-width="7" fill="none"
          stroke-linecap="round" stroke-linejoin="round"/>
    <rect x="294" y="310" width="100" height="20" rx="10"
          fill="#cfc9bd"/>
    <circle cx="256" cy="392" r="21" fill="#dcd6ca"/>
    <path d="M245 392 l8 9 l15 -18" stroke="#ffffff" stroke-width="7" fill="none"
          stroke-linecap="round" stroke-linejoin="round"/>
    <rect x="294" y="382" width="100" height="20" rx="10"
          fill="#cfc9bd"/>
</svg>